<svg width="34" height="34" viewBox="0 0 34 34" fill="none" xmlns="http://www.w3.org/2000/svg">
<g clip-path="url(#clip0_19_28128)">
<path d="M17 33.9999C18.1272 33.9999 19.2082 33.5521 20.0052 32.7551C20.8022 31.9581 21.25 30.8771 21.25 29.7499H12.75C12.75 30.8771 13.1978 31.9581 13.9948 32.7551C14.7918 33.5521 15.8728 33.9999 17 33.9999ZM17 4.07566L15.3064 4.41778C13.3853 4.80921 11.6585 5.85238 10.4181 7.37073C9.17782 8.88908 8.50021 10.7893 8.5 12.7499C8.5 14.0844 8.21525 17.4185 7.52462 20.7017C7.18462 22.3315 6.72563 24.0294 6.11575 25.4999H27.8842C27.2744 24.0294 26.8175 22.3337 26.4754 20.7017C25.7847 17.4185 25.5 14.0844 25.5 12.7499C25.4993 10.7897 24.8215 8.88995 23.5812 7.37203C22.3409 5.85412 20.6144 4.81126 18.6936 4.41991L17 4.07353V4.07566ZM30.2175 25.4999C30.6914 26.4498 31.2396 27.202 31.875 27.6249H2.125C2.76037 27.202 3.30862 26.4498 3.7825 25.4999C5.695 21.6749 6.375 14.6199 6.375 12.7499C6.375 7.60741 10.03 3.31491 14.8856 2.33528C14.856 2.03981 14.8886 1.7414 14.9813 1.4593C15.0741 1.1772 15.2249 0.917672 15.4241 0.697454C15.6234 0.477237 15.8665 0.30122 16.138 0.180753C16.4094 0.060287 16.703 -0.00195312 17 -0.00195312C17.297 -0.00195313 17.5906 0.060287 17.862 0.180753C18.1335 0.30122 18.3766 0.477237 18.5759 0.697454C18.7751 0.917672 18.9259 1.1772 19.0187 1.4593C19.1114 1.7414 19.144 2.03981 19.1144 2.33528C21.5162 2.82382 23.6754 4.12742 25.2264 6.02535C26.7773 7.92327 27.6247 10.2989 27.625 12.7499C27.625 14.6199 28.305 21.6749 30.2175 25.4999Z" fill="#393939"/>
</g>
<defs>
<clipPath id="clip0_19_28128">
<rect width="34" height="34" fill="white"/>
</clipPath>
</defs>
</svg>
