<svg width="48" height="36" viewBox="0 0 48 36" fill="none" xmlns="http://www.w3.org/2000/svg">
<path d="M5.52338 27.5314C5.73746 27.7463 5.9015 28.0057 6.00382 28.2913C6.10613 28.5769 6.1442 28.8815 6.11531 29.1834C5.97036 30.5809 5.69555 31.9619 5.29444 33.3084C8.17163 32.6422 9.92888 31.8709 10.7271 31.4666C11.1798 31.2373 11.7012 31.183 12.1914 31.314C13.5969 31.6887 15.0455 31.8773 16.5 31.875C24.7418 31.875 30.9375 26.0856 30.9375 19.5C30.9375 12.9165 24.7418 7.125 16.5 7.125C8.25825 7.125 2.0625 12.9165 2.0625 19.5C2.0625 22.5277 3.33506 25.3369 5.52338 27.5314ZM4.50656 35.5854C4.01789 35.6823 3.52764 35.771 3.036 35.8515C2.6235 35.9175 2.31 35.4885 2.47294 35.1049C2.65607 34.673 2.82392 34.2348 2.97619 33.7911L2.98237 33.7704C3.49388 32.2854 3.9105 30.5777 4.06313 28.9875C1.53244 26.4506 0 23.13 0 19.5C0 11.5264 7.38787 5.0625 16.5 5.0625C25.6121 5.0625 33 11.5264 33 19.5C33 27.4736 25.6121 33.9375 16.5 33.9375C14.8658 33.9397 13.2383 33.7275 11.6593 33.3064C10.5868 33.8488 8.27888 34.8367 4.50656 35.5854Z" fill="#393939"/>
<path d="M44.0397 28.6357C44.4691 28.7208 44.9 28.7988 45.332 28.8695C45.6945 28.9275 45.97 28.5505 45.8268 28.2134C45.6659 27.8338 45.5184 27.4487 45.3846 27.0588L45.3791 27.0407C44.9296 25.7357 44.5635 24.2349 44.4294 22.8375C46.6533 20.6081 48 17.69 48 14.5C48 7.49288 41.5076 1.8125 33.5 1.8125C25.4924 1.8125 19 7.49288 19 14.5C19 21.5071 25.4924 27.1875 33.5 27.1875C34.9361 27.1894 36.3663 27.003 37.7539 26.6329C38.6964 27.1096 40.7246 27.9778 44.0397 28.6357Z" fill="white"/>
<path d="M43.1461 21.5579C42.958 21.7467 42.8138 21.9748 42.7239 22.2257C42.634 22.4766 42.6005 22.7443 42.6259 23.0097C42.7533 24.2378 42.9948 25.4514 43.3473 26.6347C40.8189 26.0493 39.2746 25.3714 38.5732 25.0161C38.1753 24.8146 37.7172 24.7669 37.2863 24.882C36.0512 25.2113 34.7782 25.377 33.5 25.375C26.2572 25.375 20.8125 20.2873 20.8125 14.5C20.8125 8.7145 26.2572 3.625 33.5 3.625C40.7428 3.625 46.1875 8.7145 46.1875 14.5C46.1875 17.1608 45.0692 19.6294 43.1461 21.5579ZM44.0397 28.6357C44.4691 28.7208 44.9 28.7988 45.332 28.8695C45.6945 28.9275 45.97 28.5505 45.8268 28.2134C45.6659 27.8338 45.5184 27.4487 45.3846 27.0588L45.3791 27.0407C44.9296 25.7357 44.5635 24.2349 44.4294 22.8375C46.6533 20.6081 48 17.69 48 14.5C48 7.49288 41.5076 1.8125 33.5 1.8125C25.4924 1.8125 19 7.49288 19 14.5C19 21.5071 25.4924 27.1875 33.5 27.1875C34.9361 27.1894 36.3663 27.003 37.7539 26.6329C38.6964 27.1096 40.7246 27.9778 44.0397 28.6357Z" fill="#393939"/>
</svg>
