<svg width="25" height="25" viewBox="0 0 25 25" fill="none" xmlns="http://www.w3.org/2000/svg">
<g clip-path="url(#clip0_19_28148)">
<path d="M9.375 0.434292C9.52752 0.619624 9.62096 0.846436 9.64324 1.08542C9.66553 1.32441 9.61563 1.56458 9.5 1.77492C8.59665 3.43347 8.1249 5.29256 8.12813 7.18117C8.12813 13.464 13.25 18.5515 19.5625 18.5515C20.3859 18.5515 21.1875 18.4655 21.9578 18.3015C22.1939 18.2503 22.4399 18.2699 22.665 18.3577C22.8901 18.4455 23.0843 18.5977 23.2234 18.7952C23.3703 19.0006 23.4452 19.2488 23.4364 19.5011C23.4276 19.7535 23.3357 19.9958 23.175 20.1905C21.9495 21.6959 20.4035 22.9088 18.6497 23.7408C16.896 24.5728 14.9786 25.003 13.0375 24.9999C5.83437 24.9999 0 19.1968 0 12.0468C0 6.66554 3.30313 2.04992 8.00625 0.0936671C8.24053 -0.00534564 8.50061 -0.0256676 8.74742 0.0357541C8.99424 0.0971757 9.21445 0.237024 9.375 0.434292Z" fill="#393939"/>
<path d="M16.8649 4.91885C16.8873 4.85119 16.9305 4.7923 16.9882 4.75057C17.046 4.70884 17.1155 4.68637 17.1868 4.68637C17.2581 4.68637 17.3275 4.70884 17.3853 4.75057C17.4431 4.7923 17.4862 4.85119 17.5087 4.91885L18.1133 6.73448C18.3837 7.54385 19.018 8.17823 19.8274 8.44854L21.643 9.05323C21.7107 9.07563 21.7696 9.11879 21.8113 9.17658C21.853 9.23436 21.8755 9.30383 21.8755 9.3751C21.8755 9.44638 21.853 9.51585 21.8113 9.57363C21.7696 9.63141 21.7107 9.67457 21.643 9.69698L19.8274 10.3017C19.4282 10.4347 19.0655 10.6588 18.768 10.9563C18.4705 11.2538 18.2463 11.6165 18.1133 12.0157L17.5087 13.8314C17.4862 13.899 17.4431 13.9579 17.3853 13.9996C17.3275 14.0414 17.2581 14.0638 17.1868 14.0638C17.1155 14.0638 17.046 14.0414 16.9882 13.9996C16.9305 13.9579 16.8873 13.899 16.8649 13.8314L16.2602 12.0157C16.1272 11.6165 15.9031 11.2538 15.6056 10.9563C15.3081 10.6588 14.9453 10.4347 14.5462 10.3017L12.7305 9.69698C12.6629 9.67457 12.604 9.63141 12.5622 9.57363C12.5205 9.51585 12.498 9.44638 12.498 9.3751C12.498 9.30383 12.5205 9.23436 12.5622 9.17658C12.604 9.11879 12.6629 9.07563 12.7305 9.05323L14.5462 8.44854C14.9453 8.31555 15.3081 8.09141 15.6056 7.79389C15.9031 7.49638 16.1272 7.13366 16.2602 6.73448L16.8649 4.91885ZM21.6602 0.154789C21.6756 0.110299 21.7045 0.0717204 21.7429 0.0444168C21.7813 0.0171131 21.8272 0.00244141 21.8743 0.00244141C21.9214 0.00244141 21.9673 0.0171131 22.0056 0.0444168C22.044 0.0717204 22.0729 0.110299 22.0883 0.154789L22.4915 1.36416C22.6712 1.90479 23.0946 2.32823 23.6352 2.50791L24.8446 2.91104C24.8891 2.92646 24.9277 2.95537 24.955 2.99373C24.9823 3.0321 24.9969 3.07801 24.9969 3.1251C24.9969 3.17219 24.9823 3.21811 24.955 3.25647C24.9277 3.29484 24.8891 3.32374 24.8446 3.33916L23.6352 3.74229C23.3688 3.83092 23.1267 3.98044 22.9282 4.17898C22.7296 4.37752 22.5801 4.61962 22.4915 4.88604L22.0883 6.09542C22.0729 6.13991 22.044 6.17848 22.0056 6.20579C21.9673 6.23309 21.9214 6.24776 21.8743 6.24776C21.8272 6.24776 21.7813 6.23309 21.7429 6.20579C21.7045 6.17848 21.6756 6.13991 21.6602 6.09542L21.2571 4.88604C21.1685 4.61962 21.0189 4.37752 20.8204 4.17898C20.6219 3.98044 20.3798 3.83092 20.1133 3.74229L18.904 3.33916C18.8595 3.32374 18.8209 3.29484 18.7936 3.25647C18.7663 3.21811 18.7516 3.17219 18.7516 3.1251C18.7516 3.07801 18.7663 3.0321 18.7936 2.99373C18.8209 2.95537 18.8595 2.92646 18.904 2.91104L20.1133 2.50791C20.654 2.32823 21.0774 1.90479 21.2571 1.36416L21.6602 0.156352V0.154789Z" fill="#393939"/>
</g>
<defs>
<clipPath id="clip0_19_28148">
<rect width="25" height="25" fill="white"/>
</clipPath>
</defs>
</svg>
