<svg viewBox="0 0 21 20" fill="black" xmlns="http://www.w3.org/2000/svg">
<g clip-path="url(#clip0_19_28122)">
<path d="M14.9216 12.6545C16.0908 11.059 16.6145 9.08094 16.3878 7.11595C16.1612 5.15096 15.201 3.34399 13.6993 2.05656C12.1976 0.769122 10.2652 0.0961689 8.28866 0.172329C6.31211 0.248489 4.4372 1.06815 3.03903 2.46732C1.64086 3.86648 0.822544 5.74198 0.747798 7.71859C0.673053 9.69519 1.34739 11.6271 2.6359 13.1279C3.9244 14.6287 5.73206 15.5876 7.69721 15.8128C9.66236 16.038 11.6401 15.5129 13.2347 14.3426H13.2335C13.2697 14.3909 13.3084 14.4368 13.3518 14.4814L18.0007 19.1303C18.2271 19.3568 18.5342 19.4842 18.8545 19.4843C19.1749 19.4844 19.4821 19.3573 19.7087 19.1309C19.9352 18.9044 20.0626 18.5973 20.0627 18.277C20.0628 17.9567 19.9357 17.6494 19.7093 17.4229L15.0604 12.774C15.0173 12.7303 14.9708 12.69 14.9216 12.6533V12.6545ZM15.2331 8.01293C15.2331 8.88506 15.0613 9.74865 14.7276 10.5544C14.3938 11.3601 13.9046 12.0923 13.288 12.709C12.6713 13.3256 11.9391 13.8148 11.1334 14.1486C10.3277 14.4823 9.46407 14.6541 8.59193 14.6541C7.7198 14.6541 6.85621 14.4823 6.05047 14.1486C5.24472 13.8148 4.5126 13.3256 3.89591 12.709C3.27922 12.0923 2.79004 11.3601 2.45629 10.5544C2.12254 9.74865 1.95076 8.88506 1.95076 8.01293C1.95076 6.25158 2.65045 4.56237 3.89591 3.31691C5.14138 2.07145 6.83059 1.37175 8.59193 1.37175C10.3533 1.37175 12.0425 2.07145 13.288 3.31691C14.5334 4.56237 15.2331 6.25158 15.2331 8.01293Z"/>
</g>
<defs>
<clipPath id="clip0_19_28122">
<rect width="19.3198" height="19.3198" fill="white" transform="translate(0.742188 0.164307)"/>
</clipPath>
</defs>
</svg>
