<svg width="34" height="34" viewBox="0 0 34 34" fill="none" xmlns="http://www.w3.org/2000/svg">
<g clip-path="url(#clip0_19_28134)">
<path d="M17.0013 10.1023C16.0954 10.1023 15.1985 10.2807 14.3616 10.6274C13.5247 10.974 12.7643 11.4821 12.1238 12.1226C11.4833 12.7631 10.9752 13.5235 10.6286 14.3604C10.2819 15.1973 10.1035 16.0942 10.1035 17C10.1035 17.9059 10.2819 18.8028 10.6286 19.6397C10.9752 20.4766 11.4833 21.237 12.1238 21.8775C12.7643 22.518 13.5247 23.0261 14.3616 23.3727C15.1985 23.7194 16.0954 23.8978 17.0013 23.8978C18.8307 23.8978 20.5851 23.1711 21.8787 21.8775C23.1723 20.5839 23.899 18.8294 23.899 17C23.899 15.1706 23.1723 13.4162 21.8787 12.1226C20.5851 10.829 18.8307 10.1023 17.0013 10.1023ZM12.2285 17C12.2285 15.7342 12.7314 14.5203 13.6264 13.6252C14.5215 12.7301 15.7355 12.2273 17.0013 12.2273C18.2671 12.2273 19.481 12.7301 20.3761 13.6252C21.2712 14.5203 21.774 15.7342 21.774 17C21.774 18.2659 21.2712 19.4798 20.3761 20.3749C19.481 21.27 18.2671 21.7728 17.0013 21.7728C15.7355 21.7728 14.5215 21.27 13.6264 20.3749C12.7314 19.4798 12.2285 18.2659 12.2285 17Z" fill="#393939"/>
<path d="M20.8174 2.85379C19.6975 -0.949961 14.3043 -0.949961 13.1844 2.85379L12.9846 3.53166C12.9064 3.79719 12.7698 4.04184 12.5847 4.2477C12.3997 4.45356 12.1709 4.61539 11.9152 4.72135C11.6595 4.8273 11.3833 4.87469 11.1069 4.86004C10.8305 4.84538 10.5608 4.76906 10.3178 4.63666L9.69726 4.29666C6.21226 2.40116 2.40214 6.21341 4.29976 9.69629L4.63764 10.3168C4.77004 10.5599 4.84636 10.8295 4.86101 11.1059C4.87567 11.3823 4.82828 11.6585 4.72233 11.9142C4.61637 12.17 4.45453 12.3987 4.24868 12.5838C4.04282 12.7688 3.79816 12.9055 3.53264 12.9837L2.85476 13.1834C-0.948984 14.3033 -0.948984 19.6965 2.85476 20.8164L3.53264 21.0162C3.79816 21.0944 4.04282 21.231 4.24868 21.416C4.45453 21.6011 4.61637 21.8299 4.72233 22.0856C4.82828 22.3413 4.87567 22.6175 4.86101 22.8939C4.84636 23.1703 4.77004 23.44 4.63764 23.683L4.29764 24.3035C2.40214 27.7885 6.21226 31.6008 9.69726 29.701L10.3178 29.3632C10.5608 29.2308 10.8305 29.1544 11.1069 29.1398C11.3833 29.1251 11.6595 29.1725 11.9152 29.2785C12.1709 29.3844 12.3997 29.5463 12.5847 29.7521C12.7698 29.958 12.9064 30.2026 12.9846 30.4682L13.1844 31.146C14.3043 34.9498 19.6975 34.9498 20.8174 31.146L21.0171 30.4682C21.0953 30.2026 21.232 29.958 21.417 29.7521C21.6021 29.5463 21.8308 29.3844 22.0866 29.2785C22.3423 29.1725 22.6185 29.1251 22.8949 29.1398C23.1713 29.1544 23.4409 29.2308 23.684 29.3632L24.3045 29.7032C27.7895 31.6008 31.6018 27.7864 29.702 24.3035L29.3641 23.683C29.2317 23.44 29.1554 23.1703 29.1408 22.8939C29.1261 22.6175 29.1735 22.3413 29.2794 22.0856C29.3854 21.8299 29.5472 21.6011 29.7531 21.416C29.959 21.231 30.2036 21.0944 30.4691 21.0162L31.147 20.8164C34.9508 19.6965 34.9508 14.3033 31.147 13.1834L30.4691 12.9837C30.2036 12.9055 29.959 12.7688 29.7531 12.5838C29.5472 12.3987 29.3854 12.17 29.2794 11.9142C29.1735 11.6585 29.1261 11.3823 29.1408 11.1059C29.1554 10.8295 29.2317 10.5599 29.3641 10.3168L29.7041 9.69629C31.6018 6.21129 27.7874 2.40116 24.3045 4.29879L23.684 4.63666C23.4409 4.76906 23.1713 4.84538 22.8949 4.86004C22.6185 4.87469 22.3423 4.8273 22.0866 4.72135C21.8308 4.61539 21.6021 4.45356 21.417 4.2477C21.232 4.04184 21.0953 3.79719 21.0171 3.53166L20.8174 2.85379ZM15.2223 3.45516C15.745 1.68079 18.2568 1.68079 18.7795 3.45516L18.9793 4.13304C19.1472 4.70272 19.4405 5.2276 19.8376 5.6692C20.2347 6.1108 20.7257 6.45792 21.2744 6.68512C21.8232 6.91232 22.4158 7.01383 23.0089 6.98222C23.6019 6.9506 24.1804 6.78666 24.7019 6.50241L25.3203 6.16241C26.9438 5.28054 28.7203 7.05491 27.8363 8.68054L27.4984 9.30104C27.2146 9.82257 27.051 10.401 27.0198 10.9939C26.9885 11.5869 27.0903 12.1793 27.3177 12.7278C27.545 13.2763 27.8923 13.7669 28.3339 14.1638C28.7755 14.5607 29.3003 14.8538 29.8699 15.0215L30.5456 15.2213C32.32 15.744 32.32 18.2558 30.5456 18.7785L29.8678 18.9783C29.2981 19.1462 28.7732 19.4395 28.3316 19.8366C27.89 20.2338 27.5429 20.7247 27.3157 21.2734C27.0885 21.8222 26.987 22.4148 27.0186 23.0079C27.0502 23.601 27.2141 24.1794 27.4984 24.7009L27.8384 25.3193C28.7203 26.9428 26.9459 28.7193 25.3203 27.8353L24.7019 27.4974C24.1803 27.2132 23.6017 27.0493 23.0085 27.0178C22.4153 26.9864 21.8226 27.0881 21.2738 27.3155C20.725 27.5429 20.2341 27.8903 19.8371 28.3321C19.44 28.7739 19.1469 29.299 18.9793 29.8689L18.7795 30.5447C18.2568 32.319 15.745 32.319 15.2223 30.5447L15.0225 29.8668C14.8545 29.2974 14.5613 28.7728 14.1643 28.3314C13.7673 27.89 13.2766 27.5431 12.7281 27.3159C12.1797 27.0887 11.5873 26.9871 10.9945 27.0185C10.4017 27.0499 9.82341 27.2136 9.30201 27.4974L8.68151 27.8374C7.05801 28.7193 5.28151 26.9449 6.16551 25.3193L6.50339 24.7009C6.78804 24.1793 6.9523 23.6007 6.98412 23.0074C7.01594 22.414 6.91452 21.8211 6.68729 21.2721C6.46007 20.7231 6.1128 20.2319 5.67098 19.8346C5.22916 19.4373 4.70399 19.144 4.13401 18.9762L3.45614 18.7764C1.68177 18.2537 1.68177 15.7419 3.45614 15.2192L4.13401 15.0194C4.7031 14.8513 5.22741 14.5582 5.66857 14.1613C6.10972 13.7645 6.45656 13.274 6.6837 12.7258C6.91084 12.1776 7.01253 11.5856 6.98134 10.993C6.95014 10.4004 6.78684 9.82235 6.50339 9.30104L6.16339 8.68054C5.28151 7.05704 7.05589 5.28054 8.68151 6.16454L9.30201 6.50241C9.82341 6.78626 10.4017 6.94988 10.9945 6.98129C11.5873 7.01269 12.1797 6.91109 12.7281 6.68392C13.2766 6.45675 13.7673 6.10977 14.1643 5.66839C14.5613 5.22702 14.8545 4.70242 15.0225 4.13304L15.2223 3.45516Z" fill="#393939"/>
</g>
<defs>
<clipPath id="clip0_19_28134">
<rect width="34" height="34" fill="white"/>
</clipPath>
</defs>
</svg>
